<?xml version="1.0" encoding="utf-8"?>
<!-- Generator: Adobe Illustrator 16.0.0, SVG Export Plug-In . SVG Version: 6.00 Build 0)  -->
<!DOCTYPE svg PUBLIC "-//W3C//DTD SVG 1.1//EN" "http://www.w3.org/Graphics/SVG/1.1/DTD/svg11.dtd">
<svg version="1.1" id="Capa_1" xmlns="http://www.w3.org/2000/svg" xmlns:xlink="http://www.w3.org/1999/xlink" x="0px" y="0px"
	 width="490px" height="230px" viewBox="0 0 490 230" enable-background="new 0 0 490 230" xml:space="preserve">
<g>
	<rect x="0" fill="#446380" width="490" height="230"/>
	<g>
		<rect x="28.563" y="31.863" fill="#121D30" width="126.846" height="28.091"/>
		<polyline fill="#121D30" points="77.005,32.557 77.005,163.016 105.943,164.059 105.943,38.82 		"/>
		<g>
			<path fill="#121D30" d="M240.093,31.856c-15.577,0-28.204,12.627-28.204,28.204s12.627,28.204,28.204,28.204
				c15.576,0,28.204-12.627,28.204-28.204S255.669,31.856,240.093,31.856z M240.093,83.329c-12.852,0-23.269-10.418-23.269-23.269
				s10.417-23.269,23.269-23.269s23.269,10.418,23.269,23.269S252.945,83.329,240.093,83.329z"/>
			<path fill="#121D30" d="M245.627,62.372c-3.115,0-5.642-2.525-5.642-5.641c0-2.834,2.094-5.175,4.817-5.574
				c-1.403-0.688-2.976-1.086-4.645-1.086c-5.842,0-10.577,4.736-10.577,10.577s4.735,10.577,10.577,10.577
				c5.841,0,10.576-4.736,10.576-10.577c0-0.455-0.038-0.9-0.094-1.339C249.704,61.126,247.813,62.372,245.627,62.372z"/>
			<g>
				<polygon fill="#121D30" points="254.195,102.595 254.195,102.294 225.991,102.295 225.991,102.406 155.964,144.676 
					29.833,144.676 29.833,173.174 155.964,173.174 225.991,130.6 225.991,172.77 254.195,172.77 254.195,130.75 324.706,172.749 
					324.568,144.507 				"/>
				<path fill="#121D30" d="M449.799,87.008c0,0-9.392-51.972-68.957-55.145v0h-56.337l0.201,140.886v0.001h55.8
					c0,0,61.615,0.143,69.843-58.956C450.349,113.794,451.628,93.964,449.799,87.008z M421.757,108.882
					c-7.719,36.153-41.2,35.685-41.2,35.685h-27.694l0.047-84.612v-0.001h28.203c42.21,10.034,41.036,37.603,41.036,37.603
					C422.916,102.871,421.757,108.882,421.757,108.882z"/>
			</g>
		</g>
		<g>
			<path fill="#121D30" d="M32.998,183.782h1.605v16.063h-1.605V183.782z"/>
			<path fill="#121D30" d="M54.659,183.782h1.605v16.063h-1.605l-7.48-12.85v12.85h-1.606v-16.063h1.606l7.48,12.85V183.782z"/>
			<path fill="#121D30" d="M76.366,183.782h1.605v16.063h-1.605l-7.48-12.85v12.85H67.28v-16.063h1.606l7.48,12.85V183.782z"/>
			<path fill="#121D30" d="M88.711,191.813c0-1.178,0.225-2.287,0.676-3.326c0.451-1.04,1.065-1.951,1.845-2.73
				s1.688-1.396,2.728-1.847c1.039-0.451,2.146-0.677,3.322-0.677c1.178,0,2.284,0.226,3.323,0.677
				c1.039,0.45,1.948,1.067,2.728,1.847c0.778,0.78,1.394,1.69,1.845,2.73c0.451,1.041,0.676,2.148,0.676,3.326
				c0,1.179-0.225,2.287-0.676,3.328s-1.066,1.95-1.845,2.73c-0.779,0.779-1.688,1.396-2.728,1.847
				c-1.039,0.451-2.146,0.677-3.323,0.677c-1.177,0-2.283-0.226-3.322-0.677c-1.039-0.45-1.948-1.067-2.728-1.847
				c-0.778-0.78-1.394-1.689-1.845-2.73C88.936,194.102,88.711,192.992,88.711,191.813z M90.317,191.802
				c0,0.95,0.185,1.851,0.552,2.7c0.366,0.85,0.867,1.594,1.503,2.23c0.635,0.636,1.377,1.138,2.226,1.504
				c0.849,0.367,1.748,0.552,2.696,0.552s1.843-0.185,2.685-0.552c0.842-0.366,1.579-0.869,2.214-1.504
				c0.636-0.637,1.137-1.379,1.503-2.23c0.367-0.852,0.552-1.75,0.552-2.7s-0.185-1.847-0.552-2.688
				c-0.366-0.842-0.867-1.582-1.503-2.219c-0.635-0.636-1.373-1.138-2.214-1.504c-0.841-0.367-1.735-0.553-2.685-0.553
				s-1.848,0.184-2.696,0.553c-0.849,0.367-1.591,0.869-2.226,1.504c-0.636,0.637-1.137,1.375-1.503,2.219
				C90.5,189.956,90.317,190.852,90.317,191.802z"/>
			<path fill="#121D30" d="M114.296,183.782h1.675l4.314,13.424l4.313-13.424h1.675l-5.14,16.063h-1.698L114.296,183.782z"/>
			<path fill="#121D30" d="M144.631,199.845h-1.675l-2.02-6.241h-4.611l-1.997,6.241h-1.676l5.141-16.063h1.698L144.631,199.845z
				 M136.853,191.997h3.58l-1.79-5.576L136.853,191.997z"/>
			<path fill="#121D30" d="M151.332,185.389v-1.605h10.692v1.605h-4.543v14.456h-1.605v-14.456H151.332z"/>
			<path fill="#121D30" d="M172.58,183.782h1.605v16.063h-1.605V183.782z"/>
			<path fill="#121D30" d="M184.604,183.782h1.675l4.314,13.424l4.313-13.424h1.676l-5.141,16.063h-1.697L184.604,183.782z"/>
			<path fill="#121D30" d="M207.045,183.782h10.692v1.606h-9.087v6.607h7.48v1.605h-7.48v4.635h9.087v1.606h-10.692V183.782z"/>
			<path fill="#121D30" d="M244.998,183.782h5.392c1.103,0,2.142,0.21,3.121,0.631c0.979,0.421,1.828,0.991,2.547,1.709
				c0.719,0.719,1.289,1.567,1.709,2.547s0.631,2.019,0.631,3.121s-0.21,2.142-0.631,3.121s-0.991,1.836-1.709,2.569
				c-0.719,0.734-1.567,1.313-2.547,1.732c-0.979,0.421-2.02,0.631-3.121,0.631h-5.392V183.782L244.998,183.782z M250.39,198.238
				c0.887,0,1.717-0.168,2.49-0.504c0.772-0.336,1.449-0.799,2.031-1.39c0.582-0.588,1.04-1.272,1.377-2.054
				c0.336-0.78,0.505-1.614,0.505-2.501c0-0.888-0.168-1.717-0.505-2.49c-0.337-0.772-0.795-1.448-1.377-2.03
				s-1.259-1.041-2.031-1.377c-0.773-0.336-1.604-0.505-2.49-0.505h-3.786v12.851H250.39L250.39,198.238z"/>
			<path fill="#121D30" d="M269.068,183.782h10.693v1.606h-9.087v6.607h7.479v1.605h-7.479v4.635h9.087v1.606h-10.693V183.782z"/>
			<path fill="#121D30" d="M299.563,195.736c0-0.75-0.207-1.354-0.619-1.813c-0.413-0.459-0.938-0.838-1.571-1.136
				c-0.635-0.298-1.334-0.565-2.101-0.804c-0.765-0.236-1.491-0.508-2.18-0.814c-0.688-0.306-1.293-0.691-1.813-1.159
				c-0.52-0.466-0.855-1.081-1.009-1.847c-0.077-0.658,0.02-1.285,0.287-1.882c0.269-0.597,0.65-1.12,1.147-1.572
				c0.497-0.451,1.086-0.812,1.767-1.078s1.389-0.401,2.123-0.401c0.826,0,1.545,0.146,2.157,0.436
				c0.611,0.291,1.132,0.639,1.56,1.044c0.428,0.406,0.761,0.83,0.999,1.274c0.237,0.443,0.378,0.817,0.424,1.123h-1.767
				c-0.291-0.733-0.75-1.291-1.377-1.674s-1.293-0.582-1.997-0.598c-0.474-0.016-0.949,0.061-1.422,0.229
				c-0.476,0.168-0.893,0.398-1.25,0.688c-0.36,0.291-0.635,0.636-0.826,1.032c-0.191,0.398-0.241,0.818-0.149,1.262
				c0.123,0.536,0.433,0.96,0.931,1.273c0.497,0.313,1.09,0.593,1.777,0.837c0.688,0.245,1.415,0.489,2.181,0.733
				c0.765,0.245,1.469,0.563,2.11,0.953c0.643,0.391,1.175,0.891,1.596,1.504c0.42,0.611,0.631,1.406,0.631,2.385
				c0,0.734-0.153,1.393-0.459,1.975c-0.307,0.582-0.715,1.07-1.229,1.468c-0.513,0.398-1.104,0.7-1.777,0.906
				c-0.673,0.207-1.377,0.31-2.111,0.31s-1.453-0.13-2.157-0.39s-1.323-0.623-1.858-1.09c-0.536-0.468-0.968-1.029-1.296-1.687
				c-0.329-0.658-0.493-1.385-0.493-2.181h1.605c0,0.521,0.111,1.011,0.333,1.47c0.223,0.459,0.524,0.856,0.906,1.192
				s0.83,0.604,1.342,0.803c0.513,0.199,1.052,0.291,1.618,0.275c0.52-0.015,1.018-0.084,1.492-0.207
				c0.474-0.122,0.895-0.31,1.262-0.562s0.661-0.566,0.883-0.941C299.453,196.705,299.563,196.257,299.563,195.736z"/>
			<path fill="#121D30" d="M311.863,183.782h1.606v16.063h-1.606V183.782z"/>
			<path fill="#121D30" d="M340.569,191.997c0.016,2.524-0.433,4.353-1.342,5.483c-0.911,1.133-1.924,1.901-3.041,2.307
				c-1.117,0.404-2.264,0.607-3.441,0.607c-1.179,0-2.287-0.226-3.328-0.677c-1.04-0.45-1.95-1.067-2.73-1.847
				c-0.78-0.78-1.396-1.689-1.847-2.73s-0.677-2.149-0.677-3.328c0-1.178,0.226-2.287,0.677-3.326
				c0.451-1.041,1.066-1.951,1.847-2.73s1.69-1.396,2.73-1.847c1.041-0.451,2.148-0.677,3.328-0.677
				c1.178,0,2.286,0.226,3.326,0.677c1.04,0.45,1.95,1.067,2.73,1.847c0.597,0.596,1.094,1.27,1.492,2.02h-1.929
				c-0.214-0.309-0.459-0.594-0.733-0.856c-0.627-0.647-1.361-1.155-2.203-1.526c-0.841-0.369-1.736-0.555-2.685-0.555
				c-0.949,0-1.848,0.184-2.696,0.553c-0.85,0.367-1.591,0.869-2.227,1.504c-0.635,0.637-1.136,1.375-1.503,2.219
				c-0.366,0.843-0.551,1.738-0.551,2.688s0.185,1.851,0.551,2.7c0.367,0.85,0.868,1.594,1.503,2.23
				c0.636,0.636,1.377,1.138,2.227,1.504c0.849,0.367,1.748,0.552,2.696,0.552c0.947,0,1.865-0.149,2.753-0.447
				c0.887-0.298,1.651-0.875,2.294-1.731s0.948-1.859,0.918-3.006h-5.37v-1.606H340.569z"/>
			<path fill="#121D30" d="M360.945,183.782h1.606v16.063h-1.606l-7.479-12.85v12.85h-1.606v-16.063h1.606l7.479,12.85V183.782z"/>
			<path fill="#121D30" d="M391.761,191.802c0,0.95,0.184,1.851,0.551,2.7s0.868,1.594,1.503,2.23
				c0.635,0.636,1.377,1.138,2.227,1.504c0.849,0.367,1.747,0.552,2.695,0.552s1.843-0.185,2.686-0.552
				c0.841-0.366,1.574-0.863,2.203-1.49c0.274-0.275,0.527-0.574,0.757-0.895h1.904c-0.397,0.75-0.895,1.422-1.491,2.02
				c-0.78,0.779-1.69,1.396-2.73,1.847c-1.041,0.451-2.148,0.677-3.327,0.677c-1.178,0-2.286-0.226-3.327-0.677
				c-1.04-0.45-1.95-1.067-2.73-1.847c-0.78-0.78-1.396-1.689-1.847-2.73c-0.451-1.041-0.678-2.149-0.678-3.328
				c0-1.178,0.227-2.287,0.678-3.326c0.45-1.04,1.066-1.951,1.847-2.73s1.69-1.396,2.73-1.847c1.04-0.451,2.148-0.677,3.327-0.677
				s2.287,0.226,3.327,0.677c1.04,0.45,1.95,1.067,2.73,1.847c0.597,0.596,1.094,1.27,1.491,2.02h-1.928
				c-0.214-0.309-0.459-0.594-0.733-0.856c-0.628-0.647-1.361-1.155-2.203-1.526c-0.842-0.369-1.736-0.555-2.686-0.555
				s-1.847,0.184-2.695,0.553c-0.85,0.367-1.592,0.869-2.227,1.504c-0.635,0.637-1.136,1.375-1.503,2.219
				C391.945,189.956,391.761,190.852,391.761,191.802z"/>
			<path fill="#121D30" d="M416.314,198.881c0-0.275,0.092-0.505,0.275-0.688c0.183-0.184,0.413-0.275,0.688-0.275
				c0.275,0,0.504,0.092,0.688,0.275c0.184,0.183,0.274,0.412,0.274,0.688s-0.092,0.505-0.274,0.688
				c-0.184,0.184-0.413,0.275-0.688,0.275c-0.274,0-0.505-0.092-0.688-0.275C416.406,199.386,416.314,199.156,416.314,198.881z"/>
			<path fill="#121D30" d="M445.111,191.997c0.015,2.524-0.433,4.353-1.342,5.483c-0.911,1.133-1.924,1.901-3.041,2.307
				c-1.117,0.404-2.264,0.607-3.442,0.607c-1.178,0-2.287-0.226-3.328-0.677c-1.039-0.45-1.949-1.067-2.729-1.847
				c-0.78-0.78-1.396-1.689-1.847-2.73s-0.678-2.149-0.678-3.328c0-1.178,0.227-2.287,0.678-3.326
				c0.451-1.041,1.066-1.951,1.847-2.73s1.69-1.396,2.729-1.847c1.041-0.451,2.149-0.677,3.328-0.677s2.287,0.226,3.327,0.677
				c1.04,0.45,1.95,1.067,2.73,1.847c0.597,0.596,1.094,1.27,1.492,2.02h-1.929c-0.214-0.309-0.459-0.594-0.733-0.856
				c-0.627-0.647-1.361-1.155-2.203-1.526c-0.841-0.369-1.736-0.555-2.686-0.555c-0.948,0-1.847,0.184-2.695,0.553
				c-0.85,0.367-1.592,0.869-2.227,1.504c-0.635,0.637-1.136,1.375-1.503,2.219c-0.367,0.843-0.551,1.738-0.551,2.688
				s0.184,1.851,0.551,2.7s0.868,1.594,1.503,2.23c0.635,0.636,1.377,1.138,2.227,1.504c0.849,0.367,1.748,0.552,2.695,0.552
				c0.948,0,1.866-0.149,2.753-0.447c0.888-0.298,1.652-0.875,2.295-1.731s0.948-1.859,0.918-3.006h-5.37v-1.606H445.111z"/>
			<path fill="#121D30" d="M455.965,198.881c0-0.275,0.092-0.505,0.274-0.688c0.184-0.184,0.413-0.275,0.688-0.275
				c0.274,0,0.504,0.092,0.688,0.275c0.185,0.183,0.275,0.412,0.275,0.688s-0.092,0.505-0.275,0.688
				c-0.183,0.184-0.413,0.275-0.688,0.275c-0.275,0-0.505-0.092-0.688-0.275C456.057,199.386,455.965,199.156,455.965,198.881z"/>
		</g>
	</g>
</g>
</svg>
